:version 1.10
:name ASF
:units
  mass 1
  length 1
  angle deg
:documentation
  ASF file generated by Kaydara
:root
  axis xyz
  order  tx ty tz rx ry rz
  position 0 0 0
  orientation 0 0 0
:bonedata
  begin
    id 1
    name RightUpLegDummy
    direction -0.718183 -0.695806 0.00816078
    length 4.904
    axis 0 0 0 xyz
  end
  begin
    id 2
    name RightUpLeg
    direction 3.53373e-006 -0.995788 0.0916898
    length 17.4976
    axis -3.49089 -0.000906625 0.000286804 xyz
    dof rx ry rz
  end
  begin
    id 3
    name RightLeg
    direction 0.00371092 -0.995096 -0.0988419
    length 16.5821
    axis 3.68512 0.0193738 -0.131023 xyz
    dof rx ry rz
  end
  begin
    id 4
    name RightFoot
    direction 0.00079151 -0.46099 0.887405
    length 3.77069
    axis 4.81691e-005 -0.120479 -0.188788 xyz
    dof rx ry rz
  end
  begin
    id 5
    name RightToes
    direction 0.00124746 -0.014064 0.9999
    length 3.85082
    axis 0.000481921 0.542163 -0.142578 xyz
    dof rx ry rz
  end
  begin
    id 6
    name SpineDummy
    direction 8.3039e-015 1 4.57515e-016
    length 4.6813
    axis 0 0 0 xyz
  end
  begin
    id 7
    name Spine
    direction -3.15643e-008 0.999988 0.00495137
    length 10.1015
    axis -0.001389 0.000121418 2.40972e-006 xyz
    dof rx ry rz
  end
  begin
    id 8
    name Spine1
    direction 0 0 0
    length 0
    axis -0.001389 0.000121451 1.30017e-006 xyz
    dof rx ry rz
  end
  begin
    id 9
    name HEadDummy
    direction -1.99912e-008 0.999999 0.00127422
    length 3.43865
    axis -0.001389 0.000121451 1.30017e-006 xyz
  end
  begin
    id 10
    name HEad
    direction -0.0222688 0.980941 0.193023
    length 5.12695
    axis -0.001389 0.000121451 1.30017e-006 xyz
    dof rx ry rz
  end
  begin
    id 11
    name LeftShoulder1Dummy
    direction 0.998891 -0.0402509 -0.0244456
    length 3.5433
    axis -0.001389 0.000121451 1.30017e-006 xyz
  end
  begin
    id 12
    name LeftShoulder1
    direction 0.99951 -0.000327763 0.0313091
    length 4.05031
    axis -0.001389 0.000121451 1.30017e-006 xyz
    dof rx ry rz
  end
  begin
    id 13
    name LeftArm
    direction 0.998561 -0.00100056 -0.0536182
    length 10.3537
    axis -23.1894 0.134784 0.967509 xyz
    dof rx ry rz
  end
  begin
    id 14
    name LeftForeArm
    direction 0.998903 0.00866432 0.046012
    length 8.70632
    axis -9.91835 -0.06569 -0.177794 xyz
    dof rx ry rz
  end
  begin
    id 15
    name LeftHand
    direction 0.992938 -0.0411637 0.11126
    length 5.32135
    axis -0.00960232 -0.00340091 0.185173 xyz
    dof rx ry rz
  end
  begin
    id 16
    name RightShoulderDummy
    direction -0.998891 -0.0402509 -0.0244414
    length 3.5433
    axis -0.001389 0.000121451 1.30017e-006 xyz
  end
  begin
    id 17
    name RightShoulder
    direction -0.99951 -0.000327807 0.0313133
    length 4.05031
    axis 0.215806 0.000203643 -0.0068026 xyz
    dof rx ry rz
  end
  begin
    id 18
    name RightArm
    direction -0.998573 -0.000999564 -0.053403
    length 10.3947
    axis -23.2009 -0.134239 -0.964101 xyz
    dof rx ry rz
  end
  begin
    id 19
    name RightForeArm
    direction -0.998898 0.00868028 0.0461306
    length 8.68355
    axis -9.92322 0.0658061 0.178868 xyz
    dof rx ry rz
  end
  begin
    id 20
    name RightHand
    direction -0.992843 -0.0414603 0.112003
    length 5.28593
    axis -0.00960638 0.00330671 -0.185228 xyz
    dof rx ry rz
  end
  begin
    id 21
    name LeftUpLegDummy
    direction 0.718183 -0.695806 0.00816078
    length 4.904
    axis 0 0 0 xyz
  end
  begin
    id 22
    name LeftUpLeg
    direction -6.81752e-006 -0.995793 0.0916337
    length 17.4976
    axis -3.48766 0.00143442 -0.000524262 xyz
    dof rx ry rz
  end
  begin
    id 23
    name LeftLeg
    direction -0.00601358 -0.995091 -0.0987824
    length 16.5821
    axis 3.68178 -0.00654042 -0.000285133 xyz
    dof rx ry rz
  end
  begin
    id 24
    name LeftFoot
    direction -0.00417578 -0.460984 0.887399
    length 3.77069
    axis 1.87233e-006 4.66016e-005 -8.6538e-006 xyz
    dof rx ry rz
  end
  begin
    id 25
    name LeftToes
    direction 0.00818058 -0.00485161 0.999955
    length 3.85048
    axis 1.06247e-005 4.65869e-005 -8.65513e-006 xyz
    dof rx ry rz
  end
:hierarchy
  begin
    root RightUpLegDummy SpineDummy LeftUpLegDummy
    RightUpLegDummy RightUpLeg
    RightUpLeg RightLeg
    RightLeg RightFoot
    RightFoot RightToes
    SpineDummy Spine
    Spine Spine1
    Spine1 HEadDummy LeftShoulder1Dummy RightShoulderDummy
    HEadDummy HEad
    LeftShoulder1Dummy LeftShoulder1
    LeftShoulder1 LeftArm
    LeftArm LeftForeArm
    LeftForeArm LeftHand
    RightShoulderDummy RightShoulder
    RightShoulder RightArm
    RightArm RightForeArm
    RightForeArm RightHand
    LeftUpLegDummy LeftUpLeg
    LeftUpLeg LeftLeg
    LeftLeg LeftFoot
    LeftFoot LeftToes
  end

:SAMPLES-PER-SECOND 30
:FRAME-RANGE 1-2045
:FULLY-SPECIFIED
:DEGREES
1
root  -50.5096 40.0593 -100.796 -1.76499 64.1351 -0.0698852
RightUpLeg  3.20443 -7.81385 -4.35603
RightLeg  2.02688 -20.1782 2.32557
RightFoot  -6.18617 -0.314323 6.04026
RightToes  5.82063e-011 0 -3.6325e-017
Spine  4.8351 0.958017 2.71027
Spine1  0.876932 1.38976 -1.45035
HEad  10.252 -5.89782 -2.31006
LeftShoulder1  1.33713 0.142508 -33.633
LeftArm  29.9827 2.35958 -32.6296
LeftForeArm  -4.6369 -13.5835 -13.856
LeftHand  0.27922 -0.346948 -5.50058
RightShoulder  9.66018 12.5929 52.5058
RightArm  13.5711 4.07819 16.0909
RightForeArm  16.7189 -0.765323 17.7056
RightHand  0.502985 6.19208 4.69098
LeftUpLeg  0.791987 9.25315 6.89176
LeftLeg  0.703349 -0.24652 -2.28773
LeftFoot  0.954237 0.717337 -6.70973
LeftToes  -3.90176e-010 -2.48536e-010 1.05482e-011
2
root  -50.5307 40.0587 -100.643 -1.95063 62.9658 -0.357185
RightUpLeg  2.85498 -7.4284 -3.84987
RightLeg  2.86471 -21.1635 1.86502
RightFoot  -7.96219 -0.231901 6.01933
RightToes  5.82063e-011 0 -3.6325e-017
Spine  4.58401 0.881965 2.68783
Spine1  1.25737 1.22798 -1.03048
HEad  10.048 -4.4935 -2.7215
LeftShoulder1  1.33713 0.186971 -33.98
LeftArm  29.3977 1.77414 -32.2272
LeftForeArm  -4.02495 -13.3712 -13.9676
LeftHand  0.279914 -0.470471 -5.53044
RightShoulder  9.5798 12.4648 52.4879
RightArm  13.1672 3.89811 15.9526
RightForeArm  16.7635 -0.668522 17.6377
RightHand  0.515469 6.18206 4.82034
LeftUpLeg  1.10036 9.52879 7.36875
LeftLeg  0.565141 0.556342 -2.25709
LeftFoot  0.849096 0.748978 -7.05753
LeftToes  -3.90176e-010 -2.48536e-010 1.05482e-011
3
root  -50.5467 40.0552 -100.44 -2.10119 61.9112 -0.524726
RightUpLeg  2.80999 -7.46567 -3.58405
RightLeg  3.67759 -23.2648 1.64575
RightFoot  -9.54092 -0.15238 5.56585
RightToes  5.82063e-011 0 -3.6325e-017
Spine  4.3388 0.732769 2.72279
Spine1  1.54695 1.04172 -0.855534
HEad  9.96087 -3.4831 -2.91215
LeftShoulder1  1.33713 0.181665 -33.927
LeftArm  29.9532 1.54501 -31.9976
LeftForeArm  -4.67891 -13.5573 -13.8867
LeftHand  0.26699 -0.303259 -5.44933
RightShoulder  9.3839 12.1372 52.4933
RightArm  11.5807 3.38941 15.8667
RightForeArm  18.2735 -0.296178 17.3146
RightHand  0.5367 6.34836 4.95184
LeftUpLeg  1.54114 9.79126 7.85607
LeftLeg  0.379304 1.32733 -2.20473
LeftFoot  0.705348 0.798109 -7.5982
LeftToes  -3.90176e-010 -2.48536e-010 1.05482e-011
4
root  -50.5478 40.0324 -100.184 -2.14856 60.9522 -0.562989
RightUpLeg  3.0349 -7.86256 -3.5752
RightLeg  4.18646 -24.9264 1.81837
RightFoot  -10.8671 -0.0976228 5.74393
RightToes  5.82063e-011 0 -3.6325e-017
Spine  3.8284 0.550538 2.66169
Spine1  2.04868 0.791042 -0.567117
HEad  9.62064 -3.34947 -3.09936
LeftShoulder1  1.33713 0.163982 -33.9669
LeftArm  29.0602 1.18861 -31.7305
LeftForeArm  -4.04122 -12.93 -14.3135
LeftHand  0.271781 -0.301437 -5.54956
RightShoulder  9.07887 11.6779 52.331
RightArm  12.6921 3.11615 15.9832
RightForeArm  17.3246 0.602496 17.2795
RightHand  0.525511 6.34787 4.84189
LeftUpLeg  1.91558 10.0127 8.34233
LeftLeg  0.498514 1.85474 -2.11248
LeftFoot  0.427299 0.829018 -8.06116
LeftToes  -3.90176e-010 -2.48536e-010 1.05482e-011
5
root  -50.5624 39.9977 -99.8727 -2.10027 59.8005 -0.557692
RightUpLeg  3.12586 -8.0963 -3.45662
RightLeg  4.60926 -25.2636 2.00958
RightFoot  -11.793 -0.056597 5.95803
RightToes  5.82063e-011 0 -3.6325e-017
Spine  3.40727 0.433801 2.63426
Spine1  2.35432 0.635239 -0.422084
HEad  9.35455 -4.01189 -3.21054
LeftShoulder1  1.3268 0.190242 -33.9721
LeftArm  27.7326 1.01544 -31.4331
LeftForeArm  -2.9629 -12.1437 -14.7862
LeftHand  0.270079 -0.301056 -5.52641
RightShoulder  8.77415 11.1804 52.2918
RightArm  13.9578 2.82707 16.0558
RightForeArm  16.2968 1.41156 17.2598
RightHand  0.496323 6.53769 4.47153
LeftUpLeg  2.296 10.284 8.90453
LeftLeg  0.661806 2.49192 -2.01294
LeftFoot  0.09773 0.862242 -8.6049
LeftToes  -3.90176e-010 -2.48536e-010 1.05482e-011
